<svg id="Capa_1" enable-background="new 0 0 448 448" height="64" width="64" viewBox="0 0 448 448" xmlns="http://www.w3.org/2000/svg"><path d="m208 206.059 24-24v-30.059h-24z"/><path d="m248 166.059 13.437-13.436c-4.463-.408-8.951-.623-13.437-.623z"/><path d="m32 224c.008 42.63 14.198 84.047 40.334 117.725l39.666-39.666v-42.745l-13.657-13.657c-1.5-1.5-2.343-3.535-2.343-5.657v-39.056l-1.889-.944h-6.111v16c0 4.418-3.582 8-8 8s-8-3.582-8-8v-16h-8c-4.418 0-8-3.582-8-8v-24c.02-17.665 14.335-31.98 32-32 .379 0 .757.027 1.132.081l54.448 7.778 30.48-7.62c.634-.159 1.286-.239 1.94-.239h72c9.281.001 18.545.793 27.691 2.368l66.035-66.034c-33.679-26.136-75.095-40.326-117.726-40.334-105.869 0-192 86.131-192 192z"/><path d="m283.828 278.457 49.572-99.157c-6.097-4.339-12.515-8.208-19.2-11.571l-18.524 18.525-22.246 88.976c3.415 1.229 6.881 2.304 10.398 3.227z"/><path d="m140.422 223.155-28.422-14.211v27.742l13.657 13.657c1.5 1.5 2.343 3.535 2.343 5.657v30.059l21.656-21.659 8.972-35.9-16.828-4.808c-.475-.136-.936-.316-1.378-.537z"/><path d="m145.94 159.761c-1.004.25-2.047.304-3.072.158l-55.38-7.911c-8.628.286-15.478 7.359-15.488 15.992v16h24c1.242 0 2.467.289 3.578.845l47.335 23.667 45.087 12.888v-69.4h-15.016zm-49.94 16.239h-16v-16h16z"/><path d="m171.643 242.416 7.93-7.929-5.552-1.587z"/><path d="m382.392 65.608c-87.477-87.477-229.307-87.477-316.784 0s-87.477 229.307 0 316.784 229.307 87.477 316.784 0 87.478-229.306 0-316.784zm-310.667 296.04c-.106 0-.212 0-.319-.006-2.23-.089-4.322-1.106-5.77-2.805-32.033-37.625-49.628-85.423-49.636-134.837 0-114.691 93.309-208 208-208 49.414.008 97.213 17.603 134.838 49.636 3.363 2.866 3.765 7.915.899 11.278-.138.161-.281.317-.431.467l-281.924 281.924c-1.5 1.5-3.535 2.343-5.657 2.343zm152.275 70.352c-49.414-.008-97.213-17.603-134.838-49.636-3.363-2.866-3.765-7.915-.899-11.278.138-.161.281-.317.431-.467l281.924-281.919c3.124-3.124 8.189-3.124 11.314 0 .15.15.294.306.432.468 32.032 37.624 49.627 85.42 49.636 134.832 0 114.691-93.309 208-208 208z"/><path d="m232 249.941-6.771 6.77c2.125 1.508 4.393 2.802 6.771 3.865z"/><path d="m375.666 106.275-49.607 49.607c7.865 4.273 15.364 9.187 22.423 14.691l.059.048c19.111 14.957 34.666 33.967 45.544 55.661l1.21 2.42c3.086 6.19 4.697 13.011 4.705 19.928.106 22.034-15.991 40.8-37.785 44.047l-26.9 4.14c-16.213 2.493-32.741 2.058-48.8-1.285-.041-.008-.081-.019-.121-.027l-.109-.025c-14.258-2.982-27.947-8.223-40.55-15.526-2.39-.097-4.772-.352-7.128-.766-9.056-1.571-17.578-5.37-24.8-11.055l-.794.793-3.964 15.861 27.751 20.813c2.014 1.511 3.2 3.882 3.2 6.4v56c0 4.418-3.582 8-8 8s-8-3.582-8-8v-52l-28.8-21.6c-1.524-1.146-2.588-2.8-3-4.662l-13.575 13.575 11.03 11.03c1.501 1.5 2.345 3.535 2.345 5.657v32c0 4.418-3.582 8-8 8s-8-3.582-8-8v-28.687l-8.687-8.686-61.039 61.039c33.679 26.137 75.095 40.326 117.726 40.334 105.869 0 192-86.131 192-192-.008-42.63-14.197-84.047-40.334-117.725z"/><path d="m258.574 268.723 15.12-60.477-25.694 25.695v30.059c1.45 0 2.873.394 4.116 1.14 2.117 1.27 4.278 2.449 6.458 3.583z"/><path d="m384 248.63c-.006-4.433-1.038-8.805-3.016-12.773l-1.21-2.419c-2.595-5.179-5.495-10.199-8.686-15.034l-37.494 62.49 26.189-4.031c13.97-2.08 24.288-14.109 24.217-28.233z"/><path d="m346.187 189.514-46.021 92.043c4.601.545 9.23.827 13.863.844l46.716-77.86c-4.491-5.346-9.356-10.368-14.558-15.027z"/></svg>