<?xml version="1.0" encoding="iso-8859-1"?>
<!-- Generator: Adobe Illustrator 19.0.0, SVG Export Plug-In . SVG Version: 6.00 Build 0)  -->
<svg version="1.1" id="Capa_1" height="64" width="64" xmlns="http://www.w3.org/2000/svg" xmlns:xlink="http://www.w3.org/1999/xlink" x="0px" y="0px"
	 viewBox="0 0 512 512" style="enable-background:new 0 0 512 512;" xml:space="preserve">
<g>
	<path style="fill:#7F8C8D;" d="M423.724,494.345V512H88.276v-17.655c0.028-9.739,7.916-17.627,17.655-17.655h300.138
		C415.808,476.718,423.696,484.606,423.724,494.345z"/>
	<path id="SVGCleanerId_0" style="fill:#7F8C8D;" d="M397.242,476.69H114.759c-0.005-18.731,7.434-36.697,20.679-49.942
		s31.211-20.684,49.942-20.679h141.241c18.737-0.025,36.715,7.407,49.964,20.657C389.835,439.975,397.267,457.952,397.242,476.69z"
		/>
	<rect id="SVGCleanerId_1" x="229.517" y="291.31" style="fill:#95A5A5;" width="52.966" height="114.759"/>
	<path style="fill:#802F34;" d="M512,273.655c-0.071,9.721-7.934,17.585-17.655,17.655H17.655
		C7.917,291.282,0.029,283.394,0,273.655c-0.025-4.684,1.855-9.177,5.208-12.447c3.27-3.353,7.763-5.233,12.447-5.208h476.69
		C504.084,256.029,511.972,263.916,512,273.655z"/>
	<g>
		<rect x="26.483" y="44.138" style="fill:#7F8C8D;" width="194.207" height="211.862"/>
		<path style="fill:#7F8C8D;" d="M485.517,238.345l0,17.655H220.69V44.138l70.621,0c49.577-0.076,97.292,18.883,133.297,52.966
			h-22.952C384.6,97.122,370.778,110.944,370.759,128c0.082,17.03,13.867,30.815,30.897,30.897h66.825
			C479.754,183.863,485.562,210.951,485.517,238.345z"/>
		<path style="fill:#7F8C8D;" d="M468.48,158.897h-66.825c-17.03-0.082-30.815-13.867-30.897-30.897
			c0.019-17.056,13.841-30.878,30.897-30.897h22.952C443.175,114.596,458.087,135.6,468.48,158.897z"/>
		<path style="fill:#7F8C8D;" d="M141.242,114.759H88.276c-4.875,0-8.828-3.952-8.828-8.828s3.952-8.828,8.828-8.828h52.966
			c4.875,0,8.828,3.952,8.828,8.828S146.117,114.759,141.242,114.759z"/>
		<path style="fill:#7F8C8D;" d="M79.449,17.655v26.483H26.483V0h35.31C71.532,0.029,79.42,7.916,79.449,17.655z"/>
	</g>
	<path style="fill:#556080;" d="M423.724,494.345V512H88.276v-17.655c0.028-9.739,7.916-17.627,17.655-17.655h300.138
		C415.808,476.718,423.696,484.606,423.724,494.345z"/>
	<g>
		<path id="SVGCleanerId_0_1_" style="fill:#7F8C8D;" d="M397.242,476.69H114.759c-0.005-18.731,7.434-36.697,20.679-49.942
			s31.211-20.684,49.942-20.679h141.241c18.737-0.025,36.715,7.407,49.964,20.657C389.835,439.975,397.267,457.952,397.242,476.69z"
			/>
	</g>
	<g>
		<rect id="SVGCleanerId_1_1_" x="229.517" y="291.31" style="fill:#95A5A5;" width="52.966" height="114.759"/>
	</g>
	<rect x="26.483" y="44.138" style="fill:#C03A2B;" width="194.207" height="211.862"/>
	<path style="fill:#FF5364;" d="M485.517,238.345l0,17.655H220.69V44.138l70.621,0c49.577-0.076,97.292,18.883,133.297,52.966
		h-22.952C384.6,97.122,370.778,110.944,370.759,128c0.082,17.03,13.867,30.815,30.897,30.897h66.825
		C479.754,183.863,485.562,210.951,485.517,238.345z"/>
	<path style="fill:#B0D3F0;" d="M468.48,158.897h-66.825c-17.03-0.082-30.815-13.867-30.897-30.897
		c0.019-17.056,13.841-30.878,30.897-30.897h22.952C443.175,114.596,458.087,135.6,468.48,158.897z"/>
	<g>
		<path style="fill:#FF5364;" d="M141.242,114.759H88.276c-4.875,0-8.828-3.952-8.828-8.828s3.952-8.828,8.828-8.828h52.966
			c4.875,0,8.828,3.952,8.828,8.828S146.117,114.759,141.242,114.759z"/>
		<path style="fill:#FF5364;" d="M79.449,17.655v26.483H26.483V0h35.31C71.532,0.029,79.42,7.916,79.449,17.655z"/>
	</g>
</g>
<g>
</g>
<g>
</g>
<g>
</g>
<g>
</g>
<g>
</g>
<g>
</g>
<g>
</g>
<g>
</g>
<g>
</g>
<g>
</g>
<g>
</g>
<g>
</g>
<g>
</g>
<g>
</g>
<g>
</g>
</svg>
